External Loads File
version=1
nRows=78
nColumns=13
Range=5.000000e-03-10 seconds
endheader
time 	forceRightX 	forceRightY 	forceRightZ 	pointRightX 	pointRightY 	pointRightZ 	forceLeftX 	forceLeftY 	forceLeftZ 	pointLeftX 	pointLeftY 	pointLeftZ 		
7.505000 -10.954165 130.507561 -0.000000 0.344585 0.473406 -0.169149 75.548548 367.026572 -0.000000 0.199542 0.145907 -0.410659
7.510000 -13.291962 133.869127 -0.000000 0.347207 0.472534 -0.169225 73.736522 364.903186 -0.000000 0.196717 0.147212 -0.410651
7.515000 -15.006666 137.757340 -0.000000 0.349605 0.471708 -0.169524 71.143461 361.779407 -0.000000 0.194214 0.148436 -0.410721
7.520000 -16.252717 142.211461 -0.000000 0.351609 0.470848 -0.169633 67.530053 357.991721 -0.000000 0.192042 0.149451 -0.410779
7.525000 -17.139811 147.233888 -0.000000 0.353280 0.470174 -0.169673 62.892788 353.904184 -0.000000 0.190289 0.150300 -0.410852
7.530000 -17.643504 152.707413 -0.000000 0.354720 0.469654 -0.169662 57.650858 349.785737 -0.000000 0.188911 0.151040 -0.410937
7.535000 -17.944276 158.312238 -0.000000 0.355619 0.469273 -0.169772 51.810706 345.870570 -0.000000 0.187931 0.151441 -0.411048
7.540000 -17.964977 163.619390 -0.000000 0.356071 0.469104 -0.169883 45.976769 342.164382 -0.000000 0.187374 0.151700 -0.411137
7.545000 -17.666095 168.166147 -0.000000 0.356057 0.469221 -0.169986 40.579710 338.620793 -0.000000 0.187167 0.151710 -0.411412
7.550000 -16.884418 171.602263 -0.000000 0.355841 0.469576 -0.169932 36.198461 335.142938 -0.000000 0.187355 0.151496 -0.411510
7.555000 -15.826059 173.719369 -0.000000 0.354971 0.470167 -0.169984 32.622734 331.746238 -0.000000 0.187961 0.151087 -0.411496
7.560000 -14.412099 174.515642 -0.000000 0.353713 0.470954 -0.169966 30.192905 328.442372 -0.000000 0.188910 0.150586 -0.411478
7.565000 -12.910017 174.068342 -0.000000 0.352043 0.472190 -0.169958 28.585323 325.356423 -0.000000 0.190189 0.149826 -0.411473
7.570000 -11.390302 172.492366 -0.000000 0.350014 0.473266 -0.169824 27.835404 322.624717 -0.000000 0.191926 0.148969 -0.411464
7.575000 -10.027206 169.851015 -0.000000 0.347699 0.474471 -0.169764 27.713395 320.450874 -0.000000 0.194039 0.147931 -0.411452
7.580000 -8.926872 166.146179 -0.000000 0.345011 0.475734 -0.169880 28.004808 319.051912 -0.000000 0.196530 0.146662 -0.411442
7.585000 -8.156751 161.311839 -0.000000 0.341800 0.477095 -0.169949 28.469616 318.646724 -0.000000 0.199464 0.145274 -0.411447
7.590000 -7.506627 155.240497 -0.000000 0.338301 0.478441 -0.170021 29.343638 319.386688 -0.000000 0.202826 0.143822 -0.411571
7.595000 -6.820231 147.819625 -0.000000 0.334562 0.479513 -0.169994 30.735577 321.395571 -0.000000 0.206590 0.142304 -0.411603
7.600000 -6.179434 139.002340 -0.000000 0.330413 0.480786 -0.170045 32.214804 324.873836 -0.000000 0.210892 0.140860 -0.411516
7.605000 -5.300401 128.890913 -0.000000 0.325995 0.481911 -0.169752 34.129567 330.029580 -0.000000 0.215402 0.139431 -0.411507
7.610000 -4.192033 117.724677 -0.000000 0.321170 0.482850 -0.169645 36.090747 337.208884 -0.000000 0.220260 0.138188 -0.411522
7.615000 -2.720928 105.896127 -0.000000 0.316108 0.483706 -0.169599 37.916707 346.751366 -0.000000 0.225438 0.137044 -0.411507
7.620000 -0.767265 93.923946 -0.000000 0.310820 0.484217 -0.169545 39.367585 358.932560 -0.000000 0.230876 0.136097 -0.411482
7.625000 1.699800 82.406599 -0.000000 0.305303 0.484382 -0.169576 40.054907 373.905354 -0.000000 0.236528 0.135454 -0.411460
7.630000 4.642257 71.959920 -0.000000 0.299669 0.484197 -0.169571 39.577087 391.670542 -0.000000 0.242411 0.134981 -0.411472
7.635000 8.019773 63.143245 -0.000000 0.294018 0.483600 -0.169607 37.823207 412.012838 -0.000000 0.248371 0.134841 -0.411497
7.640000 11.712598 56.398299 -0.000000 0.288303 0.482661 -0.169573 34.361116 434.514623 -0.000000 0.254388 0.134970 -0.411548
7.645000 15.688731 51.990854 -0.000000 0.282776 0.481324 -0.169541 29.385734 458.485884 -0.000000 0.260341 0.135375 -0.411612
7.650000 19.822422 50.056336 -0.000000 0.277201 0.479755 -0.169352 22.503421 483.100907 -0.000000 0.266164 0.136023 -0.411662
7.655000 24.029833 50.603689 -0.000000 0.271725 0.477987 -0.169204 14.030112 507.336756 -0.000000 0.271768 0.136914 -0.411752
7.660000 28.198956 53.531847 -0.000000 0.266569 0.476122 -0.169112 4.642748 530.090372 -0.000000 0.277033 0.138003 -0.411859
7.665000 32.116383 58.659366 -0.000000 0.261584 0.474242 -0.169146 -5.543640 550.257527 -0.000000 0.281953 0.139206 -0.411863
7.670000 35.686172 65.615637 -0.000000 0.257207 0.472446 -0.168847 -15.313302 566.794327 -0.000000 0.286476 0.140506 -0.411671
7.675000 38.770469 73.967458 -0.000000 0.253100 0.470857 -0.168678 -24.513360 578.809334 -0.000000 0.290477 0.141888 -0.411580
7.680000 41.408819 83.164983 -0.000000 0.249310 0.469644 -0.168666 -32.485222 585.635085 -0.000000 0.293971 0.142989 -0.411542
7.685000 43.800024 92.614278 -0.000000 0.246002 0.468825 -0.168608 -38.398236 586.906327 -0.000000 0.296893 0.143920 -0.411607
7.690000 46.104177 101.808824 -0.000000 0.243012 0.468687 -0.168477 -42.143823 582.590027 -0.000000 0.299286 0.144592 -0.411615
7.695000 48.501776 110.324277 -0.000000 0.240500 0.468928 -0.168307 -43.443873 573.072243 -0.000000 0.301194 0.145065 -0.411724
7.700000 51.017652 117.936342 -0.000000 0.238130 0.469584 -0.168323 -42.773302 559.055713 -0.000000 0.302609 0.145285 -0.411867
7.705000 53.723581 124.551010 -0.000000 0.235989 0.470732 -0.168313 -40.258711 541.555071 -0.000000 0.303656 0.145335 -0.411978
7.710000 56.685845 130.213395 -0.000000 0.234205 0.472199 -0.168477 -35.984919 521.756332 -0.000000 0.304379 0.145221 -0.412101
7.715000 59.638576 135.206172 -0.000000 0.232296 0.473667 -0.168283 -31.172119 500.846468 -0.000000 0.304843 0.145031 -0.412248
7.720000 62.610404 139.706056 -0.000000 0.230617 0.475137 -0.168146 -25.674865 480.137300 -0.000000 0.305172 0.144765 -0.412400
7.725000 65.424479 143.922491 -0.000000 0.229000 0.476520 -0.167893 -20.165969 460.841500 -0.000000 0.305422 0.144489 -0.412517
7.730000 67.935555 147.942049 -0.000000 0.227403 0.477698 -0.167733 -15.241589 444.054497 -0.000000 0.305725 0.144266 -0.412646
7.735000 70.060497 151.686178 -0.000000 0.225783 0.478741 -0.167572 -11.319844 430.636398 -0.000000 0.306141 0.144148 -0.412753
7.740000 71.706013 154.953514 -0.000000 0.224157 0.479357 -0.167527 -8.794534 421.062096 -0.000000 0.306753 0.144153 -0.412876
7.745000 72.865121 157.435816 -0.000000 0.222537 0.479777 -0.167488 -7.744327 415.390780 -0.000000 0.307592 0.144295 -0.413008
7.750000 73.403514 158.899920 -0.000000 0.220668 0.479988 -0.167510 -8.552082 413.329906 -0.000000 0.308686 0.144637 -0.413086
7.755000 73.359720 159.128182 -0.000000 0.218623 0.479675 -0.167488 -11.160002 414.351221 -0.000000 0.309997 0.145191 -0.413171
7.760000 72.953732 157.985203 -0.000000 0.216647 0.479127 -0.167543 -15.088615 417.808088 -0.000000 0.311530 0.145940 -0.413192
7.765000 72.211016 155.639149 -0.000000 0.214521 0.478319 -0.167490 -20.366568 423.003942 -0.000000 0.313201 0.146868 -0.413257
7.770000 71.345718 152.387335 -0.000000 0.212471 0.477283 -0.167541 -26.428104 429.285386 -0.000000 0.314915 0.147983 -0.413258
7.775000 70.424276 148.741367 -0.000000 0.210530 0.476136 -0.167551 -32.930882 436.074363 -0.000000 0.316652 0.149130 -0.413247
7.780000 69.506010 145.233979 -0.000000 0.208786 0.474951 -0.167569 -39.382316 442.910431 -0.000000 0.318283 0.150233 -0.413212
7.785000 68.545014 142.353006 -0.000000 0.207247 0.473858 -0.167568 -45.502721 449.423471 -0.000000 0.319752 0.151300 -0.413184
7.790000 67.533732 140.417125 -0.000000 0.205956 0.473036 -0.167582 -50.919083 455.395366 -0.000000 0.320983 0.152237 -0.413131
7.795000 66.437541 139.587729 -0.000000 0.204891 0.472409 -0.167404 -55.483343 460.738765 -0.000000 0.321897 0.152873 -0.413062
7.800000 65.327113 139.814788 -0.000000 0.204260 0.472085 -0.167557 -58.906899 465.471278 -0.000000 0.322533 0.153212 -0.413019
7.805000 64.196230 140.972997 -0.000000 0.203860 0.472138 -0.167693 -61.330332 469.590066 -0.000000 0.322839 0.153206 -0.413012
7.810000 63.105128 142.866170 -0.000000 0.203714 0.472558 -0.167744 -62.752896 473.110790 -0.000000 0.322802 0.152978 -0.413022
7.815000 62.105113 145.320543 -0.000000 0.203891 0.473180 -0.167802 -63.184322 476.039556 -0.000000 0.322463 0.152535 -0.413059
7.820000 61.159578 148.240915 -0.000000 0.204273 0.473965 -0.167759 -62.839674 478.364372 -0.000000 0.321848 0.151982 -0.413133
7.825000 60.207791 151.570826 -0.000000 0.204779 0.474852 -0.167758 -61.881026 480.066055 -0.000000 0.321012 0.151334 -0.413183
7.830000 59.229383 155.238503 -0.000000 0.205496 0.475821 -0.167712 -60.222441 481.073923 -0.000000 0.319976 0.150677 -0.413256
7.835000 58.093430 159.203782 -0.000000 0.206290 0.476716 -0.167723 -58.072478 481.190533 -0.000000 0.318769 0.149973 -0.413290
7.840000 56.774866 163.388683 -0.000000 0.207214 0.477712 -0.167823 -55.327167 480.225717 -0.000000 0.317434 0.149278 -0.413306
7.845000 55.215321 167.742280 -0.000000 0.208308 0.478690 -0.167861 -52.048132 477.988400 -0.000000 0.315979 0.148630 -0.413278
7.850000 53.370976 172.221047 -0.000000 0.209546 0.479593 -0.167949 -48.323762 474.334398 -0.000000 0.314403 0.147958 -0.413256
7.855000 51.266554 176.764273 -0.000000 0.210970 0.480575 -0.168024 -44.114268 469.181285 -0.000000 0.312693 0.147239 -0.413206
7.860000 48.879289 181.297720 -0.000000 0.212571 0.481673 -0.168161 -39.576301 462.492665 -0.000000 0.310846 0.146528 -0.413128
7.865000 46.196700 185.685998 -0.000000 0.214364 0.482854 -0.168347 -34.892972 454.352622 -0.000000 0.308877 0.145798 -0.413051
7.870000 43.283718 189.754263 -0.000000 0.216425 0.484090 -0.168601 -30.084313 445.009536 -0.000000 0.306724 0.144991 -0.412964
7.875000 40.084800 193.410101 -0.000000 0.218704 0.485396 -0.168916 -25.475618 434.841221 -0.000000 0.304425 0.144114 -0.412834
7.880000 36.544848 196.638507 -0.000000 0.221050 0.486700 -0.169125 -21.409338 424.335543 -0.000000 0.301919 0.143219 -0.412761
7.885000 32.810823 199.444259 -0.000000 0.223662 0.488065 -0.169335 -17.834386 413.997640 -0.000000 0.299278 0.142313 -0.412692
7.890000 28.952039 201.869192 -0.000000 0.226429 0.489428 -0.169583 -14.888743 404.230279 -0.000000 0.296469 0.141321 -0.412687
